PathFileType	4	(X/Y/Z)	W16_1_OpenSim.trc																																																																																																																						
DataRate	CameraRate	NumFrames	NumMarkers	Units	OrigDataRate	OrigDataStartFrame	OrigNumFrames																																																																																																																		
100	100	7	40	mm	100	1126	3000																																																																																																																		
Frame#	Time	R.ASIS			R.PSIS			S2			L.PSIS			L.ASIS			R.TH1			R.TH2			R.TH3			R.MKnee			R.Knee			R.SH1			R.SH2			R.SH3			R.SH4			R.Ankle			R.MAnkle			R.Heel			R.MT5			R.MT1			L.TH1			L.TH2			L.TH3			L.TH4			L.MKnee			L.Knee			L.SH1			L.SH2			L.SH3			L.Ankle			L.MAnkle			L.Heel			L.MT5			L.MT1			R.Acr			L.Acr			C7			T10			Clav			Sternum			R.Back		
		X1	Y1	Z1	X2	Y2	Z2	X3	Y3	Z3	X4	Y4	Z4	X5	Y5	Z5	X6	Y6	Z6	X7	Y7	Z7	X8	Y8	Z8	X9	Y9	Z9	X10	Y10	Z10	X11	Y11	Z11	X12	Y12	Z12	X13	Y13	Z13	X14	Y14	Z14	X15	Y15	Z15	X16	Y16	Z16	X17	Y17	Z17	X18	Y18	Z18	X19	Y19	Z19	X20	Y20	Z20	X21	Y21	Z21	X22	Y22	Z22	X23	Y23	Z23	X24	Y24	Z24	X25	Y25	Z25	X26	Y26	Z26	X27	Y27	Z27	X28	Y28	Z28	X29	Y29	Z29	X30	Y30	Z30	X31	Y31	Z31	X32	Y32	Z32	X33	Y33	Z33	X34	Y34	Z34	X35	Y35	Z35	X36	Y36	Z36	X37	Y37	Z37	X38	Y38	Z38	X39	Y39	Z39	X40	Y40	Z40
1126	11.25	953.6587	1019.4814	-421.5391	758.9492	1028.9523	-514.3703	751.1883	1025.4216	-559.399	756.9364	1032.7295	-609.3827	932.7603	1030.495	-714.0158	902.4116	686.8237	-400.5465	822.3633	690.8373	-387.336	816.4039	580.9813	-396.296	824.3314	454.3319	-516.3885	817.7317	466.0047	-399.5353	708.1825	338.4583	-389.4808	629.8063	258.3871	-402.5703	649.3343	397.6037	-385.5468	572.0912	314.5127	-388.4412	466.3662	187.0845	-389.8684	506.2202	172.1533	-480.2788	404.964	213.4877	-450.1131	497.7113	70.7239	-362.4432	531.3231	46.1129	-453.1003	1013.2977	764.899	-729.7449	1047.729	662.0948	-717.1584	935.569	734.0742	-739.0399	972.7678	632.3947	-720.5815	1070.8151	513.3594	-592.1229	1073.2967	518.6386	-701.5231	1100.6294	385.7569	-718.7763	1019.2802	379.3159	-729.2122	1030.2495	270.4212	-721.8214	1096.085	79.0463	-717.1117	1125.7918	91.37	-617.8485	1033.4139	37.8228	-660.7198	1206.5408	35.0024	-731.9989	1246.3429	49.7403	-633.1565	938.9276	1434.1736	-420.4464	849.631	1417.9488	-726.1266	849.5401	1466.364	-565.9053	797.2636	1138.6085	-549.1752	972.3704	1360.0272	-590.9255	996.2284	1218.3444	-579.9536	781.3922	1374.1703	-459.8447
1127	11.26	953.3248	1020.9088	-423.4987	758.9271	1029.4824	-516.1834	751.2369	1026.2455	-561.2687	757.0868	1033.9934	-611.1657	933.189	1033.2487	-716.055	910.653	687.1765	-402.3788	830.4662	688.6201	-389.068	828.12	578.5899	-397.4703	840.3821	452.3097	-517.0333	832.762	464.5695	-400.0716	720.2878	340.4714	-390.2498	639.0167	263.2546	-403.5131	663.5575	401.7907	-386.3073	583.2919	321.4803	-389.2214	473.6243	200.0932	-390.7004	511.914	181.4616	-481.0421	414.649	231.9058	-451.015	494.8795	81.2619	-363.1719	526.0461	51.7328	-453.226	1013.6431	766.5202	-732.256	1047.3866	663.4158	-719.8946	935.7368	736.2248	-741.776	972.202	634.2736	-723.5024	1069.2385	514.1895	-594.4197	1071.576	519.3164	-703.8796	1095.9191	385.4915	-720.6134	1014.4078	381.2867	-732.2292	1022.3214	272.049	-724.4987	1081.1871	79.073	-718.1222	1111.4016	91.3314	-619.0292	1017.9356	38.5277	-661.5069	1191.1753	33.0962	-733.0407	1231.2683	47.4444	-634.256	938.3019	1435.8638	-421.6323	851.1199	1420.2719	-727.8805	849.7105	1468.2716	-567.4378	797.2259	1140.3807	-551.1177	972.5042	1361.9299	-592.1141	996.3276	1220.191	-581.1586	780.9705	1376.0942	-461.7899
1128	11.27	952.4787	1022.4155	-425.0172	758.6901	1030.1985	-518.0021	751.1032	1027.2605	-563.1467	757.0757	1035.4392	-612.9552	933.4924	1035.9557	-717.9902	918.9275	688.1588	-404.0132	838.6372	686.9751	-390.6893	839.9828	576.8946	-398.6292	856.533	451.3193	-517.8262	848.0936	463.8938	-400.665	733.4133	342.7938	-391.2833	649.61	268.2649	-404.9818	678.6362	405.9973	-387.0556	595.7363	328.2579	-390.2865	482.7978	212.8656	-392.1899	519.7488	190.8061	-482.3957	426.308	249.2136	-452.7109	495.0935	92.4418	-364.3318	524.0941	58.1456	-453.5076	1013.1956	767.6767	-734.7383	1045.9487	664.2133	-722.464	934.989	738.1246	-744.215	970.4611	635.843	-725.9653	1066.5638	514.778	-596.4665	1068.4401	519.6193	-706.0165	1089.6323	385.0073	-722.2998	1008.0208	382.9024	-734.3196	1013.0894	273.4277	-726.2669	1065.9043	79.207	-718.7972	1096.5481	91.4166	-619.9137	1002.3202	39.042	-662.066	1175.5011	32.0253	-733.9238	1215.8301	46.0657	-635.1904	937.3659	1437.6803	-422.5852	852.6348	1422.7435	-729.5104	849.7365	1470.3622	-568.865	797.0543	1142.3274	-553.0792	972.5167	1363.951	-593.022	996.2475	1222.1418	-582.0662	780.2758	1378.1689	-463.7214
1129	11.28	951.2409	1023.977	-426.1697	758.3038	1031.2053	-519.8209	750.8422	1028.5615	-565.0229	756.9619	1037.1421	-614.7479	933.712	1038.604	-719.8191	927.0797	689.8718	-405.4601	846.7304	686.0354	-392.2667	851.8066	576.0337	-399.7946	872.5558	451.4398	-518.733	863.5016	464.0967	-401.2945	747.3086	345.477	-392.518	661.4095	273.3242	-406.8778	694.2262	410.2276	-387.8606	609.1378	334.7351	-391.6277	493.5718	224.9108	-394.2904	529.6077	199.8761	-484.2471	439.4053	264.6587	-455.1977	498.6169	103.6099	-365.8892	525.9692	65.0425	-453.9675	1011.9582	768.4172	-737.0765	1043.4443	664.5697	-724.7446	933.3532	739.7972	-746.2751	967.6135	637.1464	-727.8846	1062.7192	515.131	-598.1498	1063.9992	519.6032	-707.812	1081.907	384.36	-723.7073	1000.2436	384.2165	-735.4731	1002.6818	274.5947	-727.1751	1050.3691	79.3891	-719.1408	1081.3201	91.5457	-620.4779	986.5813	39.4202	-662.429	1159.6244	31.5504	-734.5806	1200.1408	45.3347	-635.8948	936.1044	1439.5933	-423.2969	854.1121	1425.3249	-731.0113	849.6261	1472.6184	-570.1995	796.7715	1144.4396	-555.064	972.4121	1366.0936	-593.6659	996.0204	1224.2145	-582.7033	779.3038	1380.351	-465.6793
1130	11.29	949.7683	1025.6103	-427.0787	757.827	1032.6006	-521.6223	750.501	1030.2308	-566.8774	756.7892	1039.1614	-616.5281	933.8744	1041.201	-721.5333	934.9826	692.3741	-406.7223	854.632	685.8755	-393.8437	863.4539	576.0875	-400.9623	888.3386	452.6606	-519.6838	878.8094	465.2418	-401.9249	761.7329	348.574	-393.8699	674.2312	278.3456	-409.0552	710.0078	414.4961	-388.8078	623.2219	340.8228	-393.2416	505.6377	235.7802	-396.9053	541.2874	208.368	-486.5006	453.371	277.6087	-458.3749	505.6097	114.1428	-367.757	532.0151	72.0801	-454.6314	1009.9833	768.8357	-739.1636	1039.9648	664.6063	-726.6621	930.9166	741.3048	-747.9354	963.7904	638.257	-729.2682	1057.7157	515.2621	-599.443	1058.3879	519.3361	-709.2282	1072.9357	383.611	-724.7899	991.2624	385.2957	-735.8273	991.2775	275.5992	-727.3965	1034.6841	79.5876	-719.2188	1065.8108	91.6746	-620.7593	970.7428	39.7134	-662.6462	1143.6288	31.4586	-735.0149	1184.2908	45.0168	-636.3701	934.5271	1441.5862	-423.7751	855.4937	1427.9961	-732.3772	849.3967	1475.0254	-571.4473	796.393	1146.7156	-557.0712	972.2025	1368.3611	-594.0646	995.6738	1226.4279	-583.0986	778.0705	1382.6173	-467.6897
1131	11.3	948.2242	1027.3711	-427.8828	757.3025	1034.4465	-523.3858	750.1132	1032.3141	-568.6878	756.5832	1041.5231	-618.2761	933.9912	1043.7598	-723.118	942.5436	695.6755	-407.7911	862.2647	686.5093	-395.4255	874.834	577.0768	-402.1008	903.8493	454.9125	-520.594	893.8793	467.3418	-402.5168	776.4725	352.115	-395.2566	687.8966	283.2478	-411.3408	725.7173	418.8122	-389.9845	637.7481	346.4504	-395.1302	518.7595	245.0991	-399.8997	554.5468	215.9948	-489.0609	467.7236	287.6356	-462.0514	516.0945	123.5144	-369.8213	542.3257	78.8914	-455.5269	1007.3577	769.0348	-740.9348	1035.6338	664.4393	-728.2014	927.796	742.7218	-749.2261	959.144	639.255	-730.192	1051.6254	515.1937	-600.3845	1051.7478	518.8896	-710.2939	1062.9545	382.8195	-725.5708	981.3078	386.204	-735.6282	979.0959	276.4892	-727.1769	1018.9191	79.7938	-719.1252	1050.1112	91.791	-620.83	954.8366	39.9616	-662.7698	1127.5729	31.5848	-735.2716	1168.3479	44.9325	-636.6532	932.665	1443.6508	-424.0411	856.7391	1430.7485	-733.6031	849.0698	1477.5676	-572.6099	795.9302	1149.1522	-559.0928	971.9082	1370.7488	-594.2331	995.226	1228.7913	-583.278	776.6066	1384.9591	-469.7601
1132	11.31	946.7468	1029.3423	-428.704	756.7543	1036.7528	-525.0932	749.6955	1034.8075	-570.4344	756.3532	1044.2119	-619.973	934.0644	1046.288	-724.5554	949.7039	699.7402	-408.6512	869.5834	687.9011	-396.9776	885.8896	578.9684	-403.1572	919.0891	458.0999	-521.3869	908.607	470.3639	-403.0336	791.3661	356.0747	-396.6084	702.2581	287.9339	-413.5578	741.1707	423.1484	-391.456	652.5366	351.5386	-397.2826	532.8068	252.5763	-403.1144	569.1687	222.4874	-491.8282	482.1927	294.5507	-465.9784	529.9214	131.3157	-371.9748	556.7002	85.0928	-456.6656	1004.1868	769.1047	-742.3756	1030.5865	664.1614	-729.3976	924.1195	744.1188	-750.2149	953.8232	640.2138	-730.7736	1044.5571	514.9592	-601.0468	1044.2212	518.334	-711.077	1052.2207	382.0365	-726.1152	970.6298	386.9914	-735.17	966.3775	277.3017	-726.7795	1003.1171	80.0058	-718.9549	1034.3101	91.9029	-620.7744	938.8965	40.1937	-662.8424	1111.4943	31.8107	-735.4111	1152.3626	44.9604	-636.7978	930.5604	1445.7808	-424.1248	857.8316	1433.578	-734.6871	848.6666	1480.2257	-573.6852	795.392	1151.7396	-561.1152	971.5543	1373.2411	-594.1807	994.6873	1231.2993	-583.2653	774.9527	1387.3732	-471.8804
